<?xml version="1.0" encoding="UTF-8"?>
<svg id="Layer_1" xmlns="http://www.w3.org/2000/svg" xmlns:xlink="http://www.w3.org/1999/xlink" version="1.1" viewBox="0 0 1743.6 1756">
  <!-- Generator: Adobe Illustrator 29.4.0, SVG Export Plug-In . SVG Version: 2.1.0 Build 152)  -->
  <defs>
    <style>
      .st0 {
        fill: #ef504c;
      }

      .st1 {
        fill: #ffd059;
      }

      .st2 {
        isolation: isolate;
      }

      .st3, .st4 {
        fill: #fff;
      }

      .st5 {
        fill: #a1c9ee;
      }

      .st6 {
        fill: #f5f5f5;
      }

      .st7 {
        fill: #f5f7f7;
      }

      .st8 {
        clip-path: url(#clippath);
      }

      .st4 {
        stroke: #f5f7f7;
        stroke-miterlimit: 10;
        stroke-width: 20px;
      }
    </style>
    <clipPath id="clippath">
      <path class="st3" d="M1003.7,122c28.7,6.2,67.2,13.5,95,22.8,17.1,5.7,39.9,13.1,56.6,19.9,20.9,8.5,48.6,20.5,68.6,31.2,31.7,17,72.6,42.3,101.9,63.2,18.9,13.5,42.5,33.5,59.9,48.9,13.5,12,30.2,29.4,43,42.1,16.6,16.4,36.4,40.7,50.6,59.2,20.7,26.9,45.9,64.8,62.4,94.5,17.2,30.9,37.5,73.7,49.5,107,7.5,20.8,16.5,49,22.4,70.3,4.7,16.8,9.4,39.5,12.8,56.6,4.2,20.9,8.6,49,9.8,70.2,1,17.2,2.6,40.1,3.1,57.3.6,20.3-.4,47.5-1.9,67.8-4.1,56-13.3,98.2-18.5,120.5-3.9,16.7-10,38.7-15.2,55-5.6,17.7-14,41.1-21,58.3-19.4,47.9-52.6,116.2-109.5,188-35.9,45.3-68.9,75.9-69.2,76.1-11.3,10.2-25.8,24.6-37.8,34-24,18.8-56.5,43.3-81.9,60.2-32.4,21.4-69.9,39.6-90.1,49.3-14.3,6.9-33.8,14.9-48.6,20.6-16.7,6.4-54,20.2-103.4,31.4-17,3.9-39.8,8.8-57.1,10.8-33.4,3.8-78.2,7.8-111.8,8.4-19.4.3-45.2-1-64.5-2.6-20.8-1.8-48.4-5-68.9-8.9-28.8-5.5-67.1-14-95-22.8-17.2-5.4-39.9-13.1-56.6-19.9-20.9-8.5-48.6-20.5-68.6-31.2-31.7-17-72.6-42.3-101.9-63.2-18.9-13.5-42.5-33.5-59.9-48.9-13.5-12-30.2-29.4-43-42.1-16.6-16.4-36.4-40.7-50.6-59.2-20.7-26.9-45.9-64.8-62.4-94.5-17.2-30.9-37.5-73.7-49.5-107-7.5-20.8-16.5-49-22.4-70.3-4.7-16.8-9.4-39.5-12.8-56.6-4.2-20.9-8.6-49-9.8-70.2-1-17.2-2.6-40.1-3.1-57.3-.6-20.3.4-47.5,1.9-67.8,2.9-40.6,9.1-80.8,18.5-120.5,11.8-50.1,26.4-89.5,36.1-113.4,20-49.3,40.3-84.6,49.5-100.4,16.7-28.6,37.5-59.2,60.1-87.6,35.9-45.3,68.9-75.9,69.2-76.1,11.3-10.2,25.8-24.6,37.8-34,24-18.8,56.5-43.3,81.9-60.2,32.4-21.4,69.9-39.6,90.1-49.3,14.3-6.9,33.8-14.9,48.6-20.6,18-6.9,54.9-20.4,103.4-31.4,17-3.9,39.8-8.8,57.1-10.8,33.4-3.8,78.2-7.5,111.8-8.4,19.4-.5,45.2,1,64.5,2.6,20.8,1.8,48.4,5.4,68.9,8.9"/>
    </clipPath>
  </defs>
  <g class="st2">
    <g class="st2">
      <path class="st3" d="M1003.7,122c28.7,6.2,67.2,13.5,95,22.8,17.1,5.7,39.9,13.1,56.6,19.9,20.9,8.5,48.6,20.5,68.6,31.2,31.7,17,72.6,42.3,101.9,63.2,18.9,13.5,42.5,33.5,59.9,48.9,13.5,12,30.2,29.4,43,42.1,16.6,16.4,36.4,40.7,50.6,59.2,20.7,26.9,45.9,64.8,62.4,94.5,17.2,30.9,37.5,73.7,49.5,107,7.5,20.8,16.5,49,22.4,70.3,4.7,16.8,9.4,39.5,12.8,56.6,4.2,20.9,8.6,49,9.8,70.2,1,17.2,2.6,40.1,3.1,57.3.6,20.3-.4,47.5-1.9,67.8-4.1,56-13.3,98.2-18.5,120.5-3.9,16.7-10,38.7-15.2,55-5.6,17.7-14,41.1-21,58.3-19.4,47.9-52.6,116.2-109.5,188-35.9,45.3-68.9,75.9-69.2,76.1-11.3,10.2-25.8,24.6-37.8,34-24,18.8-56.5,43.3-81.9,60.2-32.4,21.4-69.9,39.6-90.1,49.3-14.3,6.9-33.8,14.9-48.6,20.6-16.7,6.4-54,20.2-103.4,31.4-17,3.9-39.8,8.8-57.1,10.8-33.4,3.8-78.2,7.8-111.8,8.4-19.4.3-45.2-1-64.5-2.6-20.8-1.8-48.4-5-68.9-8.9-28.8-5.5-67.1-14-95-22.8-17.2-5.4-39.9-13.1-56.6-19.9-20.9-8.5-48.6-20.5-68.6-31.2-31.7-17-72.6-42.3-101.9-63.2-18.9-13.5-42.5-33.5-59.9-48.9-13.5-12-30.2-29.4-43-42.1-16.6-16.4-36.4-40.7-50.6-59.2-20.7-26.9-45.9-64.8-62.4-94.5-17.2-30.9-37.5-73.7-49.5-107-7.5-20.8-16.5-49-22.4-70.3-4.7-16.8-9.4-39.5-12.8-56.6-4.2-20.9-8.6-49-9.8-70.2-1-17.2-2.6-40.1-3.1-57.3-.6-20.3.4-47.5,1.9-67.8,2.9-40.6,9.1-80.8,18.5-120.5,11.8-50.1,26.4-89.5,36.1-113.4,20-49.3,40.3-84.6,49.5-100.4,16.7-28.6,37.5-59.2,60.1-87.6,35.9-45.3,68.9-75.9,69.2-76.1,11.3-10.2,25.8-24.6,37.8-34,24-18.8,56.5-43.3,81.9-60.2,32.4-21.4,69.9-39.6,90.1-49.3,14.3-6.9,33.8-14.9,48.6-20.6,18-6.9,54.9-20.4,103.4-31.4,17-3.9,39.8-8.8,57.1-10.8,33.4-3.8,78.2-7.5,111.8-8.4,19.4-.5,45.2,1,64.5,2.6,20.8,1.8,48.4,5.4,68.9,8.9"/>
      <g class="st8">
        <g>
          <path class="st0" d="M328.5,335.9c14.5-13.6,33.7-31.9,48.8-44.8q53.3-41.9,82-60.2c57.9-34.3,59-34.9,90.6-49.6,63.4-26.8,64.6-27.3,99.6-38,67.6-18,70.2-18.7,108.9-24.5,71.2-8,75.5-8.5,118.3-8.4,74,3.3,80,3.6,126.9,11.5-111.9-19.5-241.6,101.1-339.6,320.4-54.4-9.5-111.7,12.2-151.9,52.4-114.4-107.8-179.3-163.6-183.6-158.9"/>
          <path class="st3" d="M122.9,1046.5l-8.2-41.3c-9.6-73.9-10.2-78.4-10.7-125.2,2.6-74.8,2.7-77.7,9.5-121.7,14.4-72.8,14.9-75.6,27.9-116.1q25.8-70.9,43.1-106.1,34.1-63,54.7-93.1,41.2-55.7,64.6-81.4l24.6-25.8c4.4-4.7,69.2,51.1,183.6,158.9-20.2,20.2-36.2,45.2-45.2,73.2-9,27.8-10.1,55.2-4.5,79.8-237.6,115.1-368.8,270-339.5,398.7"/>
          <path class="st1" d="M740,1634.1h0c-28.7-6.2-66.8-14.9-95-22.8-72.6-25.5-78.5-27.6-125.2-51.1-65.8-37.3-72.7-41.2-115.7-73.6-58.2-48.6-64.3-53.7-101.3-93.7-45.1-54-57.2-68.5-100.9-140.6-34.4-67.5-37.2-73-54.8-121.5-7.7-25.1-17.9-58.7-24.2-84.2-29.3-128.7,101.9-283.6,339.5-398.7,11.2,49.5,49.1,88,103.7,97.5,0,0,0,0,0,0-75.3,342.5-46.1,693.4,79.6,832.5,28.9,32,60.8,50.4,94.2,56.2"/>
          <path class="st3" d="M1416.7,1418.5c-15,14.1-34.9,33-50.5,46.5q-53.3,41.9-82,60.2c-57.9,34.3-59,34.9-90.6,49.6-63.4,26.8-64.6,27.3-99.6,38-67.6,18-70.2,18.7-108.9,24.5-71.2,8-75.5,8.5-118.3,8.4-74-3.3-80-3.6-126.9-11.5-33.5-5.8-65.3-24.2-94.2-56.2-125.6-139.1-154.9-490.1-79.6-832.5,54.6,9.5,112.1-12.4,152.3-52.8,240,233,505.2,502.2,630.9,641.2,48.8,54,70.3,81.6,67.4,84.7"/>
          <path class="st5" d="M1620,706.6l8.8,44.2c9.6,73.9,10.2,78.3,10.7,125.2-2.6,74.8-2.7,77.7-9.5,121.7-14.4,72.8-14.9,75.6-27.9,116.1q-25.8,70.9-43.1,106.1-34.1,63-54.7,93.1-41.2,55.7-64.6,81.4l-23,24.1c2.9-3.2-18.6-30.7-67.4-84.7-125.6-139.1-390.8-408.2-630.9-641.2,20-20.2,35.8-45,44.8-72.8,9.1-28,10.1-55.6,4.4-80.3,341.9-84,683.3-52.1,808.9,87,22.6,25,36.9,52,43.4,80.3"/>
          <path class="st3" d="M1003.7,122c28.7,6.2,66.8,14.9,95,22.8,72.6,25.5,78.5,27.6,125.2,51.1,65.8,37.3,72.7,41.2,115.7,73.6,58.2,48.6,64.3,53.7,101.3,93.7,45.1,54,57.2,68.5,100.9,140.6,34.4,67.5,37.2,73,54.8,121.5,7.5,24.3,17.4,56.7,23.5,81.3-6.6-28.3-20.8-55.3-43.4-80.3-125.6-139.1-467-171-808.9-87-11.3-49.2-49.2-87.5-103.6-97,98-219.3,227.8-339.9,339.6-320.4"/>
          <path class="st7" d="M664,442.4"/>
          <path class="st4" d="M664,442.4c81.8,14.3,126.2,93.7,99.2,177.3-27,83.7-115.3,139.9-197.1,125.6-81.8-14.3-126.2-93.7-99.2-177.3,27-83.7,115.3-139.9,197.1-125.6"/>
        </g>
      </g>
    </g>
  </g>
  <path class="st6" d="M871.8,110.4c424,0,767.7,343.7,767.7,767.7s-343.7,767.7-767.7,767.7S104.1,1302,104.1,878,447.8,110.4,871.8,110.4M871.8,10.4c-58.8,0-117.6,5.9-174.8,17.6-55.8,11.4-110.6,28.4-163,50.6-51.4,21.8-101,48.7-147.4,80-45.9,31-89.1,66.7-128.3,105.9-39.2,39.2-74.9,82.4-105.9,128.3-31.3,46.4-58.3,96-80,147.4-22.2,52.4-39.2,107.3-50.6,163-11.7,57.2-17.6,116-17.6,174.8s5.9,117.6,17.6,174.8c11.4,55.8,28.4,110.6,50.6,163,21.8,51.4,48.7,101,80,147.4,31,45.9,66.7,89.1,105.9,128.3,39.2,39.2,82.4,74.9,128.3,105.9,46.4,31.3,96,58.3,147.4,80,52.4,22.2,107.3,39.2,163,50.6,57.2,11.7,116,17.6,174.8,17.6s117.6-5.9,174.8-17.6c55.8-11.4,110.6-28.4,163-50.6,51.4-21.8,101-48.7,147.4-80,45.9-31,89.1-66.7,128.3-105.9,39.2-39.2,74.9-82.4,105.9-128.3,31.3-46.4,58.3-96,80-147.4,22.2-52.4,39.2-107.3,50.6-163,11.7-57.2,17.6-116,17.6-174.8s-5.9-117.6-17.6-174.8c-11.4-55.8-28.4-110.6-50.6-163-21.8-51.4-48.7-101-80-147.4-31-45.9-66.7-89.1-105.9-128.3-39.2-39.2-82.4-74.9-128.3-105.9-46.4-31.3-96-58.3-147.4-80-52.4-22.2-107.3-39.2-163-50.6-57.2-11.7-116-17.6-174.8-17.6h0Z"/>
</svg>